<svg width="1275" height="577" viewBox="0 0 1275 577" fill="none" xmlns="http://www.w3.org/2000/svg">
<g clip-path="url(#clip0)">
<path fill-rule="evenodd" clip-rule="evenodd" d="M0 0.000373815H1366V577H0L0 0.000373815Z" fill="#CCD0DE"/>
<rect x="561" y="303" width="52" height="40" rx="7" fill="#586380"/>
<circle cx="586" cy="321" r="8.5" stroke="white" stroke-width="3"/>
<line y1="-2.5" x2="11.3362" y2="-2.5" transform="matrix(0.654899 0.755716 -0.776991 0.629512 589.576 329.433)" stroke="white" stroke-width="5"/>
<path d="M236.174 282.614C236.672 282.614 237.101 282.557 237.461 282.443C237.821 282.329 238.115 282.17 238.343 281.966C238.577 281.756 238.748 281.51 238.856 281.228C238.964 280.94 239.018 280.625 239.018 280.283C239.018 279.617 238.781 279.092 238.307 278.708C237.833 278.318 237.122 278.123 236.174 278.123H233.384V282.614H236.174ZM233.384 272.48V276.881H235.688C236.18 276.881 236.606 276.827 236.966 276.719C237.332 276.611 237.632 276.461 237.866 276.269C238.106 276.077 238.283 275.846 238.397 275.576C238.511 275.3 238.568 275 238.568 274.676C238.568 273.914 238.34 273.359 237.884 273.011C237.428 272.657 236.72 272.48 235.76 272.48H233.384ZM235.76 271.103C236.552 271.103 237.233 271.181 237.803 271.337C238.379 271.493 238.85 271.715 239.216 272.003C239.588 272.291 239.861 272.645 240.035 273.065C240.209 273.479 240.296 273.947 240.296 274.469C240.296 274.787 240.245 275.093 240.143 275.387C240.047 275.675 239.9 275.945 239.702 276.197C239.504 276.449 239.252 276.677 238.946 276.881C238.646 277.079 238.292 277.241 237.884 277.367C238.832 277.547 239.543 277.886 240.017 278.384C240.497 278.876 240.737 279.524 240.737 280.328C240.737 280.874 240.635 281.372 240.431 281.822C240.233 282.272 239.939 282.659 239.549 282.983C239.165 283.307 238.691 283.559 238.127 283.739C237.563 283.913 236.921 284 236.201 284H231.647V271.103H235.76ZM246.213 282.875C246.813 282.875 247.287 282.737 247.635 282.461C247.983 282.179 248.157 281.795 248.157 281.309C248.157 281.093 248.124 280.898 248.058 280.724C247.992 280.544 247.884 280.388 247.734 280.256C247.584 280.124 247.383 280.022 247.131 279.95C246.885 279.878 246.582 279.842 246.222 279.842H244.251V282.875H246.213ZM244.251 275.963V278.825H246.006C246.27 278.825 246.513 278.789 246.735 278.717C246.963 278.639 247.158 278.534 247.32 278.402C247.482 278.264 247.608 278.102 247.698 277.916C247.788 277.724 247.833 277.514 247.833 277.286C247.833 277.118 247.803 276.956 247.743 276.8C247.683 276.638 247.581 276.497 247.437 276.377C247.293 276.251 247.104 276.152 246.87 276.08C246.636 276.002 246.348 275.963 246.006 275.963H244.251ZM246.051 274.883C246.615 274.883 247.098 274.94 247.5 275.054C247.902 275.168 248.232 275.324 248.49 275.522C248.748 275.714 248.937 275.942 249.057 276.206C249.177 276.47 249.237 276.752 249.237 277.052C249.237 277.25 249.21 277.457 249.156 277.673C249.102 277.889 249.006 278.096 248.868 278.294C248.736 278.492 248.553 278.672 248.319 278.834C248.091 278.99 247.803 279.113 247.455 279.203C248.151 279.323 248.688 279.566 249.066 279.932C249.444 280.292 249.633 280.769 249.633 281.363C249.633 281.807 249.543 282.194 249.363 282.524C249.189 282.848 248.946 283.121 248.634 283.343C248.328 283.565 247.968 283.73 247.554 283.838C247.14 283.946 246.696 284 246.222 284H242.712V274.883H246.051ZM257.744 278.447C257.744 278.075 257.69 277.736 257.582 277.43C257.48 277.118 257.327 276.851 257.123 276.629C256.925 276.401 256.682 276.227 256.394 276.107C256.106 275.981 255.779 275.918 255.413 275.918C254.645 275.918 254.036 276.143 253.586 276.593C253.142 277.037 252.866 277.655 252.758 278.447H257.744ZM259.04 282.722C258.842 282.962 258.605 283.172 258.329 283.352C258.053 283.526 257.756 283.67 257.438 283.784C257.126 283.898 256.802 283.982 256.466 284.036C256.13 284.096 255.797 284.126 255.467 284.126C254.837 284.126 254.255 284.021 253.721 283.811C253.193 283.595 252.734 283.283 252.344 282.875C251.96 282.461 251.66 281.951 251.444 281.345C251.228 280.739 251.12 280.043 251.12 279.257C251.12 278.621 251.216 278.027 251.408 277.475C251.606 276.923 251.888 276.446 252.254 276.044C252.62 275.636 253.067 275.318 253.595 275.09C254.123 274.856 254.717 274.739 255.377 274.739C255.923 274.739 256.427 274.832 256.889 275.018C257.357 275.198 257.759 275.462 258.095 275.81C258.437 276.152 258.704 276.578 258.896 277.088C259.088 277.592 259.184 278.168 259.184 278.816C259.184 279.068 259.157 279.236 259.103 279.32C259.049 279.404 258.947 279.446 258.797 279.446H252.704C252.722 280.022 252.8 280.523 252.938 280.949C253.082 281.375 253.28 281.732 253.532 282.02C253.784 282.302 254.084 282.515 254.432 282.659C254.78 282.797 255.17 282.866 255.602 282.866C256.004 282.866 256.349 282.821 256.637 282.731C256.931 282.635 257.183 282.533 257.393 282.425C257.603 282.317 257.777 282.218 257.915 282.128C258.059 282.032 258.182 281.984 258.284 281.984C258.416 281.984 258.518 282.035 258.59 282.137L259.04 282.722ZM267.364 282.83V276.143H264.475C264.415 277.079 264.331 277.907 264.223 278.627C264.115 279.347 263.989 279.98 263.845 280.526C263.707 281.066 263.551 281.525 263.377 281.903C263.209 282.281 263.032 282.59 262.846 282.83H267.364ZM270.586 282.785V286.646C270.586 286.802 270.541 286.922 270.451 287.006C270.367 287.096 270.256 287.141 270.118 287.141H269.137V284H261.469V286.682C261.469 286.796 261.433 286.901 261.361 286.997C261.295 287.093 261.184 287.141 261.028 287.141H260.02V282.83H260.317C260.527 282.83 260.734 282.794 260.938 282.722C261.148 282.65 261.349 282.515 261.541 282.317C261.733 282.113 261.913 281.828 262.081 281.462C262.255 281.096 262.411 280.619 262.549 280.031C262.687 279.443 262.807 278.729 262.909 277.889C263.011 277.043 263.092 276.041 263.152 274.883H268.921V282.785H270.586ZM280.029 274.883V284H278.427V277.808C278.427 277.688 278.433 277.559 278.445 277.421C278.457 277.283 278.472 277.145 278.49 277.007C278.436 277.127 278.382 277.238 278.328 277.34C278.274 277.442 278.217 277.535 278.157 277.619L273.756 283.604C273.69 283.7 273.606 283.793 273.504 283.883C273.408 283.967 273.3 284.009 273.18 284.009H272.208V274.892H273.819V281.084C273.819 281.198 273.813 281.324 273.801 281.462C273.789 281.594 273.774 281.729 273.756 281.867C273.81 281.753 273.864 281.648 273.918 281.552C273.972 281.45 274.026 281.357 274.08 281.273L278.481 275.288C278.547 275.192 278.631 275.102 278.733 275.018C278.835 274.928 278.946 274.883 279.066 274.883H280.029ZM290.14 276.107H286.639V284H285.037V276.107H281.536V274.883H290.14V276.107ZM297.4 278.447C297.4 278.075 297.346 277.736 297.238 277.43C297.136 277.118 296.983 276.851 296.779 276.629C296.581 276.401 296.338 276.227 296.05 276.107C295.762 275.981 295.435 275.918 295.069 275.918C294.301 275.918 293.692 276.143 293.242 276.593C292.798 277.037 292.522 277.655 292.414 278.447H297.4ZM298.696 282.722C298.498 282.962 298.261 283.172 297.985 283.352C297.709 283.526 297.412 283.67 297.094 283.784C296.782 283.898 296.458 283.982 296.122 284.036C295.786 284.096 295.453 284.126 295.123 284.126C294.493 284.126 293.911 284.021 293.377 283.811C292.849 283.595 292.39 283.283 292 282.875C291.616 282.461 291.316 281.951 291.1 281.345C290.884 280.739 290.776 280.043 290.776 279.257C290.776 278.621 290.872 278.027 291.064 277.475C291.262 276.923 291.544 276.446 291.91 276.044C292.276 275.636 292.723 275.318 293.251 275.09C293.779 274.856 294.373 274.739 295.033 274.739C295.579 274.739 296.083 274.832 296.545 275.018C297.013 275.198 297.415 275.462 297.751 275.81C298.093 276.152 298.36 276.578 298.552 277.088C298.744 277.592 298.84 278.168 298.84 278.816C298.84 279.068 298.813 279.236 298.759 279.32C298.705 279.404 298.603 279.446 298.453 279.446H292.36C292.378 280.022 292.456 280.523 292.594 280.949C292.738 281.375 292.936 281.732 293.188 282.02C293.44 282.302 293.74 282.515 294.088 282.659C294.436 282.797 294.826 282.866 295.258 282.866C295.66 282.866 296.005 282.821 296.293 282.731C296.587 282.635 296.839 282.533 297.049 282.425C297.259 282.317 297.433 282.218 297.571 282.128C297.715 282.032 297.838 281.984 297.94 281.984C298.072 281.984 298.174 282.035 298.246 282.137L298.696 282.722ZM313.01 274.883V284H311.399V279.734H307.025V284H305.414V274.883H307.025V278.519H311.399V274.883H313.01ZM320.497 279.896C319.759 279.92 319.129 279.98 318.607 280.076C318.091 280.166 317.668 280.286 317.338 280.436C317.014 280.586 316.777 280.763 316.627 280.967C316.483 281.171 316.411 281.399 316.411 281.651C316.411 281.891 316.45 282.098 316.528 282.272C316.606 282.446 316.711 282.59 316.843 282.704C316.981 282.812 317.14 282.893 317.32 282.947C317.506 282.995 317.704 283.019 317.914 283.019C318.196 283.019 318.454 282.992 318.688 282.938C318.922 282.878 319.141 282.794 319.345 282.686C319.555 282.578 319.753 282.449 319.939 282.299C320.131 282.149 320.317 281.978 320.497 281.786V279.896ZM315.322 276.17C315.826 275.684 316.369 275.321 316.951 275.081C317.533 274.841 318.178 274.721 318.886 274.721C319.396 274.721 319.849 274.805 320.245 274.973C320.641 275.141 320.974 275.375 321.244 275.675C321.514 275.975 321.718 276.338 321.856 276.764C321.994 277.19 322.063 277.658 322.063 278.168V284H321.352C321.196 284 321.076 283.976 320.992 283.928C320.908 283.874 320.842 283.772 320.794 283.622L320.614 282.758C320.374 282.98 320.14 283.178 319.912 283.352C319.684 283.52 319.444 283.664 319.192 283.784C318.94 283.898 318.67 283.985 318.382 284.045C318.1 284.111 317.785 284.144 317.437 284.144C317.083 284.144 316.75 284.096 316.438 284C316.126 283.898 315.853 283.748 315.619 283.55C315.391 283.352 315.208 283.103 315.07 282.803C314.938 282.497 314.872 282.137 314.872 281.723C314.872 281.363 314.971 281.018 315.169 280.688C315.367 280.352 315.688 280.055 316.132 279.797C316.576 279.539 317.155 279.329 317.869 279.167C318.583 278.999 319.459 278.903 320.497 278.879V278.168C320.497 277.46 320.344 276.926 320.038 276.566C319.732 276.2 319.285 276.017 318.697 276.017C318.301 276.017 317.968 276.068 317.698 276.17C317.434 276.266 317.203 276.377 317.005 276.503C316.813 276.623 316.645 276.734 316.501 276.836C316.363 276.932 316.225 276.98 316.087 276.98C315.979 276.98 315.886 276.953 315.808 276.899C315.73 276.839 315.664 276.767 315.61 276.683L315.322 276.17ZM323.927 275.819C324.269 275.495 324.683 275.234 325.169 275.036C325.661 274.838 326.252 274.739 326.942 274.739C327.494 274.739 327.98 274.808 328.4 274.946C328.82 275.078 329.171 275.255 329.453 275.477C329.741 275.699 329.957 275.954 330.101 276.242C330.251 276.524 330.326 276.818 330.326 277.124C330.326 277.304 330.296 277.493 330.236 277.691C330.182 277.889 330.089 278.078 329.957 278.258C329.825 278.438 329.654 278.606 329.444 278.762C329.234 278.918 328.973 279.044 328.661 279.14C329.243 279.314 329.699 279.593 330.029 279.977C330.365 280.361 330.533 280.832 330.533 281.39C330.533 281.81 330.437 282.191 330.245 282.533C330.053 282.869 329.795 283.157 329.471 283.397C329.147 283.631 328.769 283.811 328.337 283.937C327.911 284.063 327.464 284.126 326.996 284.126C326.702 284.126 326.402 284.099 326.096 284.045C325.796 283.991 325.502 283.907 325.214 283.793C324.926 283.673 324.653 283.526 324.395 283.352C324.143 283.178 323.918 282.968 323.72 282.722L324.17 282.137C324.242 282.035 324.344 281.984 324.476 281.984C324.584 281.984 324.698 282.032 324.818 282.128C324.944 282.218 325.097 282.32 325.277 282.434C325.457 282.548 325.676 282.653 325.934 282.749C326.198 282.839 326.519 282.884 326.897 282.884C327.227 282.884 327.521 282.845 327.779 282.767C328.043 282.683 328.265 282.569 328.445 282.425C328.625 282.281 328.763 282.11 328.859 281.912C328.955 281.714 329.003 281.498 329.003 281.264C329.003 280.814 328.814 280.451 328.436 280.175C328.064 279.899 327.497 279.761 326.735 279.761H325.7V278.699H326.735C327.065 278.699 327.362 278.666 327.626 278.6C327.89 278.528 328.115 278.432 328.301 278.312C328.487 278.192 328.628 278.048 328.724 277.88C328.82 277.706 328.868 277.52 328.868 277.322C328.868 277.142 328.826 276.971 328.742 276.809C328.664 276.647 328.541 276.506 328.373 276.386C328.211 276.266 328.007 276.17 327.761 276.098C327.515 276.026 327.227 275.99 326.897 275.99C326.537 275.99 326.231 276.026 325.979 276.098C325.733 276.17 325.523 276.248 325.349 276.332C325.181 276.416 325.043 276.494 324.935 276.566C324.827 276.638 324.734 276.674 324.656 276.674C324.578 276.674 324.512 276.659 324.458 276.629C324.41 276.599 324.356 276.536 324.296 276.44L323.927 275.819ZM336.09 282.875C336.69 282.875 337.164 282.737 337.512 282.461C337.86 282.179 338.034 281.795 338.034 281.309C338.034 281.093 338.001 280.898 337.935 280.724C337.869 280.544 337.761 280.388 337.611 280.256C337.461 280.124 337.26 280.022 337.008 279.95C336.762 279.878 336.459 279.842 336.099 279.842H334.128V282.875H336.09ZM334.128 275.963V278.825H335.883C336.147 278.825 336.39 278.789 336.612 278.717C336.84 278.639 337.035 278.534 337.197 278.402C337.359 278.264 337.485 278.102 337.575 277.916C337.665 277.724 337.71 277.514 337.71 277.286C337.71 277.118 337.68 276.956 337.62 276.8C337.56 276.638 337.458 276.497 337.314 276.377C337.17 276.251 336.981 276.152 336.747 276.08C336.513 276.002 336.225 275.963 335.883 275.963H334.128ZM335.928 274.883C336.492 274.883 336.975 274.94 337.377 275.054C337.779 275.168 338.109 275.324 338.367 275.522C338.625 275.714 338.814 275.942 338.934 276.206C339.054 276.47 339.114 276.752 339.114 277.052C339.114 277.25 339.087 277.457 339.033 277.673C338.979 277.889 338.883 278.096 338.745 278.294C338.613 278.492 338.43 278.672 338.196 278.834C337.968 278.99 337.68 279.113 337.332 279.203C338.028 279.323 338.565 279.566 338.943 279.932C339.321 280.292 339.51 280.769 339.51 281.363C339.51 281.807 339.42 282.194 339.24 282.524C339.066 282.848 338.823 283.121 338.511 283.343C338.205 283.565 337.845 283.73 337.431 283.838C337.017 283.946 336.573 284 336.099 284H332.589V274.883H335.928ZM346.46 279.896C345.722 279.92 345.092 279.98 344.57 280.076C344.054 280.166 343.631 280.286 343.301 280.436C342.977 280.586 342.74 280.763 342.59 280.967C342.446 281.171 342.374 281.399 342.374 281.651C342.374 281.891 342.413 282.098 342.491 282.272C342.569 282.446 342.674 282.59 342.806 282.704C342.944 282.812 343.103 282.893 343.283 282.947C343.469 282.995 343.667 283.019 343.877 283.019C344.159 283.019 344.417 282.992 344.651 282.938C344.885 282.878 345.104 282.794 345.308 282.686C345.518 282.578 345.716 282.449 345.902 282.299C346.094 282.149 346.28 281.978 346.46 281.786V279.896ZM341.285 276.17C341.789 275.684 342.332 275.321 342.914 275.081C343.496 274.841 344.141 274.721 344.849 274.721C345.359 274.721 345.812 274.805 346.208 274.973C346.604 275.141 346.937 275.375 347.207 275.675C347.477 275.975 347.681 276.338 347.819 276.764C347.957 277.19 348.026 277.658 348.026 278.168V284H347.315C347.159 284 347.039 283.976 346.955 283.928C346.871 283.874 346.805 283.772 346.757 283.622L346.577 282.758C346.337 282.98 346.103 283.178 345.875 283.352C345.647 283.52 345.407 283.664 345.155 283.784C344.903 283.898 344.633 283.985 344.345 284.045C344.063 284.111 343.748 284.144 343.4 284.144C343.046 284.144 342.713 284.096 342.401 284C342.089 283.898 341.816 283.748 341.582 283.55C341.354 283.352 341.171 283.103 341.033 282.803C340.901 282.497 340.835 282.137 340.835 281.723C340.835 281.363 340.934 281.018 341.132 280.688C341.33 280.352 341.651 280.055 342.095 279.797C342.539 279.539 343.118 279.329 343.832 279.167C344.546 278.999 345.422 278.903 346.46 278.879V278.168C346.46 277.46 346.307 276.926 346.001 276.566C345.695 276.2 345.248 276.017 344.66 276.017C344.264 276.017 343.931 276.068 343.661 276.17C343.397 276.266 343.166 276.377 342.968 276.503C342.776 276.623 342.608 276.734 342.464 276.836C342.326 276.932 342.188 276.98 342.05 276.98C341.942 276.98 341.849 276.953 341.771 276.899C341.693 276.839 341.627 276.767 341.573 276.683L341.285 276.17ZM358.062 274.883V284H356.451V279.734H352.077V284H350.466V274.883H352.077V278.519H356.451V274.883H358.062ZM368.43 274.883V284H366.828V277.808C366.828 277.688 366.834 277.559 366.846 277.421C366.858 277.283 366.873 277.145 366.891 277.007C366.837 277.127 366.783 277.238 366.729 277.34C366.675 277.442 366.618 277.535 366.558 277.619L362.157 283.604C362.091 283.7 362.007 283.793 361.905 283.883C361.809 283.967 361.701 284.009 361.581 284.009H360.609V274.892H362.22V281.084C362.22 281.198 362.214 281.324 362.202 281.462C362.19 281.594 362.175 281.729 362.157 281.867C362.211 281.753 362.265 281.648 362.319 281.552C362.373 281.45 362.427 281.357 362.481 281.273L366.882 275.288C366.948 275.192 367.032 275.102 367.134 275.018C367.236 274.928 367.347 274.883 367.467 274.883H368.43ZM377.064 278.447C377.064 278.075 377.01 277.736 376.902 277.43C376.8 277.118 376.647 276.851 376.443 276.629C376.245 276.401 376.002 276.227 375.714 276.107C375.426 275.981 375.099 275.918 374.733 275.918C373.965 275.918 373.356 276.143 372.906 276.593C372.462 277.037 372.186 277.655 372.078 278.447H377.064ZM378.36 282.722C378.162 282.962 377.925 283.172 377.649 283.352C377.373 283.526 377.076 283.67 376.758 283.784C376.446 283.898 376.122 283.982 375.786 284.036C375.45 284.096 375.117 284.126 374.787 284.126C374.157 284.126 373.575 284.021 373.041 283.811C372.513 283.595 372.054 283.283 371.664 282.875C371.28 282.461 370.98 281.951 370.764 281.345C370.548 280.739 370.44 280.043 370.44 279.257C370.44 278.621 370.536 278.027 370.728 277.475C370.926 276.923 371.208 276.446 371.574 276.044C371.94 275.636 372.387 275.318 372.915 275.09C373.443 274.856 374.037 274.739 374.697 274.739C375.243 274.739 375.747 274.832 376.209 275.018C376.677 275.198 377.079 275.462 377.415 275.81C377.757 276.152 378.024 276.578 378.216 277.088C378.408 277.592 378.504 278.168 378.504 278.816C378.504 279.068 378.477 279.236 378.423 279.32C378.369 279.404 378.267 279.446 378.117 279.446H372.024C372.042 280.022 372.12 280.523 372.258 280.949C372.402 281.375 372.6 281.732 372.852 282.02C373.104 282.302 373.404 282.515 373.752 282.659C374.1 282.797 374.49 282.866 374.922 282.866C375.324 282.866 375.669 282.821 375.957 282.731C376.251 282.635 376.503 282.533 376.713 282.425C376.923 282.317 377.097 282.218 377.235 282.128C377.379 282.032 377.502 281.984 377.604 281.984C377.736 281.984 377.838 282.035 377.91 282.137L378.36 282.722ZM390.613 275.333C390.697 275.201 390.808 275.093 390.946 275.009C391.084 274.925 391.231 274.883 391.387 274.883H392.638L390.271 278.357C390.127 278.579 389.977 278.762 389.821 278.906C389.665 279.044 389.473 279.152 389.245 279.23C389.533 279.308 389.776 279.431 389.974 279.599C390.172 279.761 390.349 279.971 390.505 280.229L392.899 284H391.783C391.495 284 391.273 283.952 391.117 283.856C390.961 283.76 390.826 283.622 390.712 283.442L388.939 280.607C388.657 280.139 388.234 279.905 387.67 279.905H386.689V284.009H385.078V274.883H386.689V278.825H387.553C388.033 278.825 388.408 278.621 388.678 278.213L390.613 275.333ZM401.99 274.883V284H400.379V279.734H396.005V284H394.394V274.883H396.005V278.519H400.379V274.883H401.99ZM412.358 274.883V284H410.756V277.808C410.756 277.688 410.762 277.559 410.774 277.421C410.786 277.283 410.801 277.145 410.819 277.007C410.765 277.127 410.711 277.238 410.657 277.34C410.603 277.442 410.546 277.535 410.486 277.619L406.085 283.604C406.019 283.7 405.935 283.793 405.833 283.883C405.737 283.967 405.629 284.009 405.509 284.009H404.537V274.892H406.148V281.084C406.148 281.198 406.142 281.324 406.13 281.462C406.118 281.594 406.103 281.729 406.085 281.867C406.139 281.753 406.193 281.648 406.247 281.552C406.301 281.45 406.355 281.357 406.409 281.273L410.81 275.288C410.876 275.192 410.96 275.102 411.062 275.018C411.164 274.928 411.275 274.883 411.395 274.883H412.358ZM420.803 276.107H416.501V284H414.89V274.883H420.803V276.107ZM430.147 274.883V284H428.545V277.808C428.545 277.688 428.551 277.559 428.563 277.421C428.575 277.283 428.59 277.145 428.608 277.007C428.554 277.127 428.5 277.238 428.446 277.34C428.392 277.442 428.335 277.535 428.275 277.619L423.874 283.604C423.808 283.7 423.724 283.793 423.622 283.883C423.526 283.967 423.418 284.009 423.298 284.009H422.326V274.892H423.937V281.084C423.937 281.198 423.931 281.324 423.919 281.462C423.907 281.594 423.892 281.729 423.874 281.867C423.928 281.753 423.982 281.648 424.036 281.552C424.09 281.45 424.144 281.357 424.198 281.273L428.599 275.288C428.665 275.192 428.749 275.102 428.851 275.018C428.953 274.928 429.064 274.883 429.184 274.883H430.147Z" fill="#4B5157"/>
<path d="M226.504 130V125.3L230.667 124.495V96.4307L226.504 95.625V90.8984H242.483V95.625L238.508 96.4307V106.877H242.026L249.358 96.3232C250.916 94.139 252.357 92.6261 253.682 91.7847C255.007 90.9432 256.484 90.5225 258.113 90.5225C259.115 90.5225 260.011 90.6478 260.798 90.8984C261.604 91.1491 262.338 91.4803 263 91.8921L261.685 97.7734C261.309 97.6839 260.959 97.6123 260.637 97.5586C260.333 97.487 260.028 97.4512 259.724 97.4512C258.954 97.4512 258.193 97.6839 257.441 98.1494C256.707 98.6149 255.848 99.4832 254.863 100.754L248.74 109.133L259.563 124.629L263.672 125.3V130H248.176V125.3L250.405 124.978L250.352 124.897L243.101 113.994H238.508V124.495L242.483 125.3V130H226.504ZM265.955 130V125.3L270.144 124.495V106.475L265.955 105.669V100.942H281.343V105.669L277.959 106.475V112.705H287.52V106.475L284.163 105.669V100.942H299.551V105.669L295.361 106.475V124.495L299.551 125.3V130H284.163V125.3L287.52 124.495V118.721H277.959V124.495L281.343 125.3V130H265.955ZM303.982 130V125.3L308.171 124.495V106.475L303.982 105.669V100.942H319.773V105.669L316.013 106.475V118.586L316.174 118.613L325.627 100.942H337.632V105.669L333.469 106.475V124.495L337.632 125.3V130H321.868V125.3L325.627 124.495V112.329L325.466 112.302L316.013 130H303.982ZM341.392 130V125.3L345.554 124.495V106.475L341.392 105.669V100.942H366.851V111.174H361.936L361.614 107.012H353.396V124.495L357.559 125.3V130H341.392ZM371.282 130V125.3L375.471 124.495V106.475L371.282 105.669V100.942H387.073V105.669L383.313 106.475V118.586L383.474 118.613L392.927 100.942H404.932V105.669L400.769 106.475V124.495L404.932 125.3V130H389.167V125.3L392.927 124.495V112.329L392.766 112.302L383.313 130H371.282ZM422.468 138.701L421.877 123.931H424.402C425.566 122.713 426.47 121.523 427.114 120.359C427.759 119.177 428.224 117.834 428.511 116.331C428.797 114.827 428.967 112.965 429.021 110.745L429.128 106.475L425.02 105.669V100.942H454.829V105.669L450.64 106.475V123.984H454.856L454.319 138.701H447.014V130H429.8V138.701H422.468ZM433.372 123.958H442.852V107.2H436.943L436.863 110.745C436.791 113.627 436.442 116.16 435.815 118.345C435.189 120.511 434.374 122.382 433.372 123.958ZM458.831 130L458.723 123.823L459.583 123.796C460.782 123.796 461.686 123.483 462.295 122.856C462.904 122.23 463.315 121.165 463.53 119.661C463.763 118.139 463.879 116.026 463.879 113.323V106.475L459.69 105.669V100.942H490.708V105.669L486.519 106.475V124.495L490.708 125.3V130H474.514V125.3L478.704 124.495V107.012H471.721V113.323C471.721 119.052 470.835 123.268 469.062 125.972C467.308 128.657 464.309 130 460.066 130H458.831ZM494.871 130V125.3L497.959 124.817L501.665 118.318C498.281 116.653 496.589 114.075 496.589 110.583C496.589 108.704 497.1 107.039 498.12 105.588C499.141 104.138 500.582 103.001 502.444 102.178C504.306 101.354 506.499 100.942 509.023 100.942H525.996V105.669L521.833 106.475V124.495L525.996 125.3V130H510.635V125.3L514.019 124.495V119.822H509.775L504.539 130H494.871ZM508.889 114.531H514.019V106.931H509.023C507.555 106.931 506.418 107.325 505.613 108.113C504.807 108.901 504.404 109.796 504.404 110.798C504.404 111.801 504.789 112.678 505.559 113.43C506.347 114.164 507.457 114.531 508.889 114.531ZM227.444 200V195.3L231.633 194.495V176.475L227.444 175.669V170.942H243.772C247.639 170.942 250.647 171.623 252.795 172.983C254.962 174.326 256.045 176.296 256.045 178.892C256.045 181.899 254.308 183.967 250.835 185.095C253.145 185.543 254.836 186.366 255.911 187.566C257.003 188.765 257.549 190.198 257.549 191.863C257.549 194.513 256.519 196.536 254.46 197.932C252.419 199.311 249.483 200 245.652 200H227.444ZM239.448 182.786H243.987C246.798 182.75 248.203 181.774 248.203 179.858C248.203 177.907 246.744 176.931 243.826 176.931H239.448V182.786ZM239.448 194.038H245.625C248.346 194.038 249.707 193.018 249.707 190.977C249.707 189.992 249.385 189.231 248.74 188.694C248.114 188.157 247.084 187.888 245.652 187.888H239.448V194.038ZM274.79 200.564C271.997 200.564 269.58 199.937 267.539 198.684C265.516 197.431 263.958 195.703 262.866 193.501C261.774 191.299 261.228 188.765 261.228 185.901V185.095C261.228 182.249 261.783 179.724 262.893 177.522C264.003 175.302 265.57 173.565 267.593 172.312C269.616 171.041 271.997 170.405 274.736 170.405C277.332 170.405 279.579 170.817 281.477 171.641C283.375 172.446 284.915 173.386 286.096 174.46L286.042 182.786H280.134L279.087 177.603C278.657 177.173 278.111 176.824 277.449 176.555C276.786 176.287 276.115 176.152 275.435 176.152C273.286 176.152 271.684 176.949 270.627 178.542C269.589 180.118 269.07 182.302 269.07 185.095V185.901C269.07 188.891 269.634 191.084 270.762 192.48C271.89 193.859 273.25 194.548 274.844 194.548C276.222 194.548 277.323 194.19 278.147 193.474C278.988 192.74 279.57 191.711 279.893 190.386H286.58L286.66 190.547C286.195 193.644 285.049 196.088 283.223 197.878C281.396 199.669 278.586 200.564 274.79 200.564ZM304.089 200.564C301.296 200.564 298.861 199.955 296.785 198.738C294.726 197.502 293.123 195.811 291.978 193.662C290.85 191.514 290.286 189.061 290.286 186.304V185.229C290.286 182.347 290.823 179.796 291.897 177.576C292.971 175.338 294.484 173.583 296.436 172.312C298.405 171.023 300.723 170.387 303.391 170.405C307.312 170.405 310.311 171.56 312.388 173.87C314.465 176.161 315.503 179.384 315.503 183.538V187.808H298.423L298.369 187.969C298.512 189.884 299.148 191.46 300.276 192.695C301.404 193.931 303.006 194.548 305.083 194.548C306.515 194.548 307.849 194.369 309.084 194.011C310.338 193.635 311.555 193.089 312.737 192.373L314.858 197.207C313.659 198.174 312.146 198.979 310.32 199.624C308.512 200.251 306.435 200.564 304.089 200.564ZM298.477 182.625H308.171V181.926C308.171 180.172 307.804 178.784 307.07 177.764C306.354 176.725 305.173 176.206 303.525 176.206C301.95 176.206 300.75 176.806 299.927 178.005C299.103 179.187 298.593 180.682 298.396 182.49L298.477 182.625ZM319.719 200V195.3L323.909 194.495V176.475L319.719 175.669V170.942H335.51V175.669L331.75 176.475V188.586L331.912 188.613L341.365 170.942H353.369V175.669L349.207 176.475V194.495L353.369 195.3V200H337.605V195.3L341.365 194.495V182.329L341.204 182.302L331.75 200H319.719ZM336.638 166.082C333.738 166.082 331.437 165.356 329.736 163.906C328.053 162.438 327.248 160.558 327.319 158.267L327.373 158.105H332.69C332.69 159.162 333.004 160.03 333.63 160.71C334.275 161.373 335.278 161.704 336.638 161.704C337.981 161.704 338.966 161.373 339.592 160.71C340.219 160.048 340.532 159.18 340.532 158.105H345.903L345.957 158.267C345.993 160.558 345.169 162.438 343.486 163.906C341.803 165.356 339.521 166.082 336.638 166.082ZM384.36 200.564C381.567 200.564 379.15 199.937 377.109 198.684C375.086 197.431 373.529 195.703 372.437 193.501C371.344 191.299 370.798 188.765 370.798 185.901V185.095C370.798 182.249 371.353 179.724 372.463 177.522C373.573 175.302 375.14 173.565 377.163 172.312C379.186 171.041 381.567 170.405 384.307 170.405C386.903 170.405 389.15 170.817 391.047 171.641C392.945 172.446 394.485 173.386 395.667 174.46L395.613 182.786H389.705L388.657 177.603C388.228 177.173 387.681 176.824 387.019 176.555C386.357 176.287 385.685 176.152 385.005 176.152C382.856 176.152 381.254 176.949 380.198 178.542C379.159 180.118 378.64 182.302 378.64 185.095V185.901C378.64 188.891 379.204 191.084 380.332 192.48C381.46 193.859 382.821 194.548 384.414 194.548C385.793 194.548 386.894 194.19 387.717 193.474C388.559 192.74 389.141 191.711 389.463 190.386H396.15L396.23 190.547C395.765 193.644 394.619 196.088 392.793 197.878C390.967 199.669 388.156 200.564 384.36 200.564ZM413.66 200.564C410.867 200.564 408.432 199.955 406.355 198.738C404.296 197.502 402.694 195.811 401.548 193.662C400.42 191.514 399.856 189.061 399.856 186.304V185.229C399.856 182.347 400.393 179.796 401.467 177.576C402.542 175.338 404.054 173.583 406.006 172.312C407.975 171.023 410.294 170.387 412.961 170.405C416.882 170.405 419.881 171.56 421.958 173.87C424.035 176.161 425.073 179.384 425.073 183.538V187.808H407.993L407.939 187.969C408.083 189.884 408.718 191.46 409.846 192.695C410.974 193.931 412.576 194.548 414.653 194.548C416.086 194.548 417.419 194.369 418.655 194.011C419.908 193.635 421.125 193.089 422.307 192.373L424.429 197.207C423.229 198.174 421.716 198.979 419.89 199.624C418.082 200.251 416.005 200.564 413.66 200.564ZM408.047 182.625H417.742V181.926C417.742 180.172 417.375 178.784 416.641 177.764C415.924 176.725 414.743 176.206 413.096 176.206C411.52 176.206 410.321 176.806 409.497 178.005C408.674 179.187 408.163 180.682 407.966 182.49L408.047 182.625ZM429.451 200V195.3L433.64 194.495V176.475L429.451 175.669V170.942H443.335L450.747 190.869H450.908L458.374 170.942H472.366V175.669L468.203 176.475V194.495L472.366 195.3V200H457.407V195.3L460.361 194.495V182.705L460.2 182.678L453.459 200H448.196L441.616 183L441.455 183.027V194.495L444.436 195.3V200H429.451ZM494.307 180.315C498.245 180.315 501.325 181.201 503.545 182.974C505.783 184.728 506.902 187.074 506.902 190.01C506.902 193.018 505.783 195.435 503.545 197.261C501.307 199.087 498.228 200 494.307 200H476.824V195.3L481.013 194.495V176.475L476.824 175.669V170.942H493.044V175.669L488.855 176.475V180.315H494.307ZM494.307 194.011C495.918 194.011 497.118 193.653 497.905 192.937C498.693 192.203 499.087 191.245 499.087 190.063C499.087 188.846 498.693 187.861 497.905 187.109C497.135 186.357 495.936 185.981 494.307 185.981H488.855V194.011H494.307ZM509.91 200V195.3L514.099 194.495V176.475L509.91 175.669V170.942H525.701V175.669L521.941 176.475V188.586L522.102 188.613L531.555 170.942H543.56V175.669L539.397 176.475V194.495L543.56 195.3V200H527.795V195.3L531.555 194.495V182.329L531.394 182.302L521.941 200H509.91Z" fill="#262D33"/>
<rect x="225" y="303" width="343" height="40" fill="white"/>
<path d="M-67 11C217.399 -109.616 808.316 28.1329 1365 -20.5245" stroke="#EFF3F3" stroke-width="93"/>
</g>
<defs>
<clipPath id="clip0">
<rect width="1366" height="577" fill="white"/>
</clipPath>
</defs>
</svg>
