<svg width="32" height="27" viewBox="0 0 32 27" fill="none" xmlns="http://www.w3.org/2000/svg">
<path d="M7.11111 6.35294H30.2222C30.288 6.35302 32 6.35496 32 7.94118L30.2222 17.4706C30.064 18.2504 29.4594 19.0588 28.5587 19.0588H10.6667L10.8357 21.1211C10.9586 21.6462 11.4795 22.2353 12.0737 22.2353H27.7451C27.812 22.2353 27.877 22.2439 27.9392 22.2599C29.2285 22.4266 30.2222 23.4204 30.2222 24.6176C30.2222 25.9313 29.026 27 27.5556 27C26.0851 27 24.8889 25.9313 24.8889 24.6176C24.8889 24.3393 24.9426 24.072 25.0412 23.8235H14.0699C14.1685 24.072 14.2222 24.3393 14.2222 24.6176C14.2222 25.9313 13.026 27 11.5556 27C10.0851 27 8.88889 25.9313 8.88889 24.6176C8.88889 23.8526 9.29458 23.1707 9.92384 22.7345C9.59193 22.3433 9.35144 21.8849 9.24377 21.4261L8.54856 18.4663L3.55556 1.58824H0.813543C0.364131 1.58824 0 1.1407 0 0.734792C0 0.328883 0.364131 0 0.813543 0H4.55415C4.92837 0 5.25438 0.230842 5.34406 0.559158L7.11111 6.35294Z" fill="#5D6077"/>
</svg>
