<svg width="191" height="29" viewBox="0 0 191 29" fill="none" xmlns="http://www.w3.org/2000/svg">
<path d="M0.984375 28V24.9238L3.70898 24.3965V6.02734L0.984375 5.5V2.40625H13.1133C16.0547 2.40625 18.3633 3.08594 20.0391 4.44531C21.7148 5.79297 22.5527 7.65625 22.5527 10.0352C22.5527 11.5469 22.166 12.9004 21.3926 14.0957C20.6309 15.291 19.582 16.2227 18.2461 16.8906L21.498 24.4141L23.6777 24.9238V28H17.4551L13.5176 17.8926H8.8418V24.3965L11.584 24.9238V28H0.984375ZM8.8418 13.9375H13.0254C15.9668 13.9375 17.4375 12.7129 17.4375 10.2637C17.4375 9.08008 17.0742 8.13672 16.3477 7.43359C15.6211 6.71875 14.543 6.36133 13.1133 6.36133H8.8418V13.9375ZM34.9629 28.3691C33.1348 28.3691 31.541 27.9707 30.1816 27.1738C28.834 26.3652 27.7852 25.2578 27.0352 23.8516C26.2969 22.4453 25.9277 20.8398 25.9277 19.0352V18.332C25.9277 16.4453 26.2793 14.7754 26.9824 13.3223C27.6855 11.8574 28.6758 10.709 29.9531 9.87695C31.2422 9.0332 32.7598 8.61719 34.5059 8.62891C37.0723 8.62891 39.0352 9.38477 40.3945 10.8965C41.7539 12.3965 42.4336 14.5059 42.4336 17.2246V20.0195H31.2539L31.2188 20.125C31.3125 21.3789 31.7285 22.4102 32.4668 23.2188C33.2051 24.0273 34.2539 24.4316 35.6133 24.4316C36.5508 24.4316 37.4238 24.3145 38.2324 24.0801C39.0527 23.834 39.8496 23.4766 40.623 23.0078L42.0117 26.1719C41.2266 26.8047 40.2363 27.332 39.041 27.7539C37.8574 28.1641 36.498 28.3691 34.9629 28.3691ZM31.2891 16.627H37.6348V16.1699C37.6348 15.0215 37.3945 14.1133 36.9141 13.4453C36.4453 12.7656 35.6719 12.4258 34.5938 12.4258C33.5625 12.4258 32.7773 12.8184 32.2383 13.6035C31.6992 14.377 31.3652 15.3555 31.2363 16.5391L31.2891 16.627ZM51.1699 28.3691C49.2832 28.3691 47.7832 27.8652 46.6699 26.8574C45.5566 25.8379 45 24.4551 45 22.709C45 20.9277 45.7207 19.4746 47.1621 18.3496C48.6152 17.2246 50.748 16.6621 53.5605 16.6621H56.0742V15.2559C56.0742 14.3418 55.8047 13.6035 55.2656 13.041C54.7383 12.4668 53.9414 12.1797 52.875 12.1797C52.3242 12.1797 51.8262 12.25 51.3809 12.3906C50.9473 12.5195 50.5547 12.707 50.2031 12.9531L49.7988 15.4668H46.1074L46.0371 10.5273C47.0332 9.96484 48.1113 9.50781 49.2715 9.15625C50.4316 8.80469 51.7266 8.62891 53.1562 8.62891C55.6406 8.62891 57.6035 9.20898 59.0449 10.3691C60.4863 11.5293 61.207 13.1758 61.207 15.3086V23.1484C61.207 23.4062 61.207 23.6582 61.207 23.9043C61.2188 24.1504 61.2422 24.3965 61.2773 24.6426L63.2637 24.9238V28H56.9004C56.7715 27.6719 56.6426 27.3203 56.5137 26.9453C56.3848 26.5703 56.291 26.1953 56.2324 25.8203C55.623 26.5938 54.9023 27.2148 54.0703 27.6836C53.25 28.1406 52.2832 28.3691 51.1699 28.3691ZM52.541 24.5723C53.2559 24.5723 53.9297 24.4141 54.5625 24.0977C55.207 23.7695 55.7109 23.3418 56.0742 22.8145V19.8086H53.543C52.418 19.8086 51.5625 20.0664 50.9766 20.582C50.4023 21.0977 50.1152 21.7188 50.1152 22.4453C50.1152 23.125 50.3262 23.6523 50.748 24.0273C51.1816 24.3906 51.7793 24.5723 52.541 24.5723ZM72.4043 28.3691C70.8926 28.3691 69.5918 27.9824 68.502 27.209C67.4238 26.4238 66.5977 25.334 66.0234 23.9395C65.4492 22.5332 65.1621 20.8926 65.1621 19.0176V18.6484C65.1621 16.6445 65.4492 14.8926 66.0234 13.3926C66.6094 11.8926 67.4414 10.7266 68.5195 9.89453C69.5977 9.05078 70.8867 8.62891 72.3867 8.62891C73.4414 8.62891 74.3555 8.83984 75.1289 9.26172C75.9141 9.67187 76.5938 10.2578 77.168 11.0195V4.19922L74.4258 3.67188V0.578125H82.3008V24.3965L84.7617 24.9238V28H77.8535L77.4668 25.6797C76.8691 26.5586 76.1543 27.2266 75.3223 27.6836C74.4902 28.1406 73.5176 28.3691 72.4043 28.3691ZM73.9336 24.3789C75.3516 24.3789 76.4297 23.7871 77.168 22.6035V14.5352C76.4297 13.2578 75.3633 12.6191 73.9688 12.6191C72.6797 12.6191 71.7422 13.1758 71.1562 14.2891C70.582 15.4023 70.2949 16.8555 70.2949 18.6484V19.0176C70.2949 20.6816 70.5762 21.9941 71.1387 22.9551C71.7012 23.9043 72.6328 24.3789 73.9336 24.3789ZM94.4473 28L88.5059 5.76367L85.8867 5.5V2.40625H96.1875V5.5L93.4277 5.9043L96.4336 18.3496L96.9785 20.6348H97.084L97.7344 18.3496L102.797 2.40625H106.576L111.832 18.7891L112.447 20.8105H112.553L113.08 18.7891L116.191 5.9043L113.273 5.5V2.40625H123.381V5.5L120.938 5.76367L114.926 28H110.285L105.434 13.041L104.818 10.9316H104.713L104.027 13.1113L99.123 28H94.4473ZM133.611 28.3691C131.725 28.3691 130.107 27.959 128.76 27.1387C127.424 26.3184 126.398 25.1816 125.684 23.7285C124.969 22.2637 124.611 20.582 124.611 18.6836V18.3145C124.611 16.4277 124.969 14.7578 125.684 13.3047C126.398 11.8398 127.424 10.6973 128.76 9.87695C130.107 9.04492 131.713 8.62891 133.576 8.62891C135.451 8.62891 137.057 9.03906 138.393 9.85938C139.74 10.6797 140.771 11.8223 141.486 13.2871C142.201 14.7402 142.559 16.416 142.559 18.3145V18.6836C142.559 20.582 142.201 22.2637 141.486 23.7285C140.771 25.1816 139.746 26.3184 138.41 27.1387C137.074 27.959 135.475 28.3691 133.611 28.3691ZM133.611 24.4316C134.936 24.4316 135.902 23.9043 136.512 22.8496C137.133 21.7949 137.443 20.4062 137.443 18.6836V18.3145C137.443 16.627 137.133 15.25 136.512 14.1836C135.891 13.1172 134.912 12.584 133.576 12.584C132.24 12.584 131.268 13.1172 130.658 14.1836C130.049 15.25 129.744 16.627 129.744 18.3145V18.6836C129.744 20.418 130.049 21.8125 130.658 22.8672C131.268 23.9102 132.252 24.4316 133.611 24.4316ZM145.248 28V24.9238L147.709 24.3965V12.6016L144.984 12.0742V8.98047H152.49L152.684 11.3359L152.719 11.7578C153.656 9.67187 155.062 8.62891 156.938 8.62891C157.242 8.62891 157.57 8.65234 157.922 8.69922C158.285 8.74609 158.613 8.81641 158.906 8.91016L158.361 13.6387L155.812 13.498C155.086 13.4629 154.494 13.5859 154.037 13.8672C153.592 14.1484 153.193 14.5527 152.842 15.0801V24.3965L155.303 24.9238V28H145.248ZM159.275 28V24.9238L161.754 24.3965V4.19922L159.012 3.67188V0.578125H166.887V24.3965L169.365 24.9238V28H159.275ZM178.365 28.3691C176.854 28.3691 175.553 27.9824 174.463 27.209C173.385 26.4238 172.559 25.334 171.984 23.9395C171.41 22.5332 171.123 20.8926 171.123 19.0176V18.6484C171.123 16.6445 171.41 14.8926 171.984 13.3926C172.57 11.8926 173.402 10.7266 174.48 9.89453C175.559 9.05078 176.848 8.62891 178.348 8.62891C179.402 8.62891 180.316 8.83984 181.09 9.26172C181.875 9.67187 182.555 10.2578 183.129 11.0195V4.19922L180.387 3.67188V0.578125H188.262V24.3965L190.723 24.9238V28H183.814L183.428 25.6797C182.83 26.5586 182.115 27.2266 181.283 27.6836C180.451 28.1406 179.479 28.3691 178.365 28.3691ZM179.895 24.3789C181.312 24.3789 182.391 23.7871 183.129 22.6035V14.5352C182.391 13.2578 181.324 12.6191 179.93 12.6191C178.641 12.6191 177.703 13.1758 177.117 14.2891C176.543 15.4023 176.256 16.8555 176.256 18.6484V19.0176C176.256 20.6816 176.537 21.9941 177.1 22.9551C177.662 23.9043 178.594 24.3789 179.895 24.3789Z" fill="#573C3C"/>
</svg>
